<svg width="500" height="500" viewBox="0 0 500 500" fill="none" xmlns="http://www.w3.org/2000/svg">
<path opacity="0.991" fill-rule="evenodd" clip-rule="evenodd" d="M244.75 4.84698C273.12 3.45243 292.37 16.2075 302.5 43.1123C308.641 69.7352 300.724 90.7383 278.75 106.122C261.253 115.599 243.586 115.939 225.75 107.143C202.664 92.4148 194.081 71.4118 200 44.1327C207.299 21.9257 222.215 8.8304 244.75 4.84698Z" fill="black"/>
<path opacity="0.975" fill-rule="evenodd" clip-rule="evenodd" d="M67.75 129.847C79.1675 129.405 90.5005 130.17 101.75 132.143C108.293 133.312 113.876 136.288 118.5 141.071C120.537 144.33 121.62 147.901 121.75 151.786C111.917 152.379 102.084 152.379 92.25 151.786C91.782 149.35 90.449 147.564 88.25 146.429C80.8205 144.131 73.3205 143.791 65.75 145.408C61.9715 146.185 60.888 148.311 62.5 151.786C63.5435 152.446 64.627 153.041 65.75 153.571C79.4585 156.073 93.1255 158.794 106.75 161.735C112.133 163.246 116.883 165.883 121 169.643C127.944 182.062 125.027 191.331 112.25 197.449C99.877 201.819 87.127 203.775 74 203.316C63.936 203.525 54.0195 202.419 44.25 200C32.9068 197.358 27.2401 190.131 27.25 178.316C37.5834 178.316 47.9167 178.316 58.25 178.316C57.6785 183.354 59.845 186.33 64.75 187.245C72.254 188.916 79.754 188.916 87.25 187.245C89.721 186.593 91.3875 185.062 92.25 182.653C91.9585 181.378 91.292 180.358 90.25 179.592C88.663 178.712 86.9965 178.032 85.25 177.551C73.8835 175.7 62.5505 173.659 51.25 171.429C44.1922 170.11 37.9422 167.134 32.5 162.5C25.5637 150.398 28.3137 141.3 40.75 135.204C49.5525 132.037 58.5525 130.251 67.75 129.847Z" fill="black"/>
<path opacity="0.976" fill-rule="evenodd" clip-rule="evenodd" d="M138.75 131.888C166.417 131.888 194.083 131.888 221.75 131.888C221.75 137.16 221.75 142.432 221.75 147.704C204.583 147.704 187.417 147.704 170.25 147.704C170.25 151.275 170.25 154.847 170.25 158.418C186.083 158.418 201.917 158.418 217.75 158.418C217.75 163.69 217.75 168.963 217.75 174.235C201.917 174.235 186.083 174.235 170.25 174.235C170.25 178.657 170.25 183.078 170.25 187.5C188.083 187.5 205.917 187.5 223.75 187.5C223.75 192.772 223.75 198.044 223.75 203.316C195.417 203.316 167.083 203.316 138.75 203.316C138.75 179.507 138.75 155.697 138.75 131.888Z" fill="black"/>
<path opacity="0.982" fill-rule="evenodd" clip-rule="evenodd" d="M238.75 132.398C252.085 132.313 265.417 132.398 278.75 132.653C292.333 147.874 305.917 163.095 319.5 178.316C319.75 163.011 319.834 147.705 319.75 132.398C329.917 132.398 340.083 132.398 350.25 132.398C350.25 156.037 350.25 179.677 350.25 203.316C336.415 203.401 322.583 203.316 308.75 203.061C295.5 187.5 282.25 171.939 269 156.378C268.75 172.023 268.667 187.669 268.75 203.316C258.75 203.316 248.75 203.316 238.75 203.316C238.75 179.677 238.75 156.037 238.75 132.398Z" fill="black"/>
<path opacity="0.981" fill-rule="evenodd" clip-rule="evenodd" d="M402.25 132.398C414.088 132.228 425.922 132.398 437.75 132.908C452.854 156.336 468.021 179.72 483.25 203.061C471.413 203.486 459.58 203.401 447.75 202.806C445.647 198.768 443.48 194.772 441.25 190.816C425.247 190.391 409.248 190.476 393.25 191.071C390.979 195.11 388.646 199.107 386.25 203.061C375.583 203.401 364.917 203.401 354.25 203.061C370.36 179.568 386.36 156.014 402.25 132.398ZM418.25 150.255C423.03 158.132 427.696 166.125 432.25 174.235C422.588 174.83 412.921 174.915 403.25 174.49C408.165 166.335 413.165 158.256 418.25 150.255Z" fill="black"/>
<path opacity="0.987" fill-rule="evenodd" clip-rule="evenodd" d="M2.75 222.704C78.5835 222.619 154.417 222.704 230.25 222.959C185.48 301.997 140.646 380.994 95.75 459.949C86.0865 451.108 76.5865 442.095 67.25 432.908C96.3 380.934 125.217 328.893 154 276.786C155.335 268.53 152.085 263.343 144.25 261.224C97.2535 261.443 50.2535 261.529 3.25 261.48C3.30549 248.551 3.13881 235.626 2.75 222.704Z" fill="black"/>
<path opacity="0.989" fill-rule="evenodd" clip-rule="evenodd" d="M271.75 223.214C346.584 223.214 421.417 223.214 496.25 223.214C496.25 235.969 496.25 248.725 496.25 261.48C448.917 261.261 401.583 261.176 354.25 261.225C350.249 262.246 347.499 264.712 346 268.623C344.621 273.128 345.121 277.38 347.5 281.378C376.21 331.634 404.793 381.975 433.25 432.398C423.566 441.601 413.732 450.614 403.75 459.439C359.359 380.918 315.359 302.177 271.75 223.214Z" fill="black"/>
<path opacity="0.986" fill-rule="evenodd" clip-rule="evenodd" d="M249.25 261.99C291.718 333.6 333.885 405.454 375.75 477.551C364.479 483.691 353.146 489.729 341.75 495.663C313.963 448.655 286.546 401.376 259.5 353.826C252.833 347.704 246.5 348.044 240.5 354.847C213.376 401.87 186.126 448.809 158.75 495.663C147.578 490.304 136.578 484.691 125.75 478.826C166.797 406.45 207.963 334.171 249.25 261.99Z" fill="black"/>
</svg>
