<svg width="1000" height="980" viewBox="0 0 1000 980" fill="none" xmlns="http://www.w3.org/2000/svg">
<path opacity="0.991" fill-rule="evenodd" clip-rule="evenodd" d="M489.5 9.50001C546.239 6.7667 584.739 31.7667 605 84.5C617.281 136.681 601.447 177.847 557.5 208C522.505 226.573 487.172 227.24 451.5 210C405.328 181.133 388.162 139.967 400 86.5C414.597 42.9742 444.43 17.3075 489.5 9.50001Z" fill="white"/>
<path opacity="0.975" fill-rule="evenodd" clip-rule="evenodd" d="M135.5 254.5C158.335 253.633 181.001 255.133 203.5 259C216.585 261.291 227.752 267.125 237 276.5C241.073 282.886 243.239 289.886 243.5 297.5C223.834 298.663 204.167 298.663 184.5 297.5C183.564 292.725 180.898 289.225 176.5 287C161.641 282.497 146.641 281.83 131.5 285C123.943 286.523 121.776 290.69 125 297.5C127.087 298.794 129.254 299.961 131.5 301C158.917 305.903 186.251 311.236 213.5 317C224.265 319.963 233.765 325.13 242 332.5C255.887 356.842 250.054 375.008 224.5 387C199.754 395.566 174.254 399.399 148 398.5C127.872 398.908 108.039 396.741 88.5 392C65.8135 386.822 54.4802 372.656 54.5 349.5C75.1667 349.5 95.8333 349.5 116.5 349.5C115.357 359.374 119.69 365.207 129.5 367C144.508 370.276 159.508 370.276 174.5 367C179.442 365.722 182.775 362.722 184.5 358C183.917 355.501 182.584 353.501 180.5 352C177.326 350.275 173.993 348.942 170.5 348C147.767 344.372 125.101 340.372 102.5 336C88.3844 333.416 75.8844 327.583 65 318.5C51.1274 294.78 56.6274 276.947 81.5 265C99.1049 258.792 117.105 255.292 135.5 254.5Z" fill="white"/>
<path opacity="0.976" fill-rule="evenodd" clip-rule="evenodd" d="M277.5 258.5C332.833 258.5 388.167 258.5 443.5 258.5C443.5 268.833 443.5 279.167 443.5 289.5C409.167 289.5 374.833 289.5 340.5 289.5C340.5 296.5 340.5 303.5 340.5 310.5C372.167 310.5 403.833 310.5 435.5 310.5C435.5 320.833 435.5 331.167 435.5 341.5C403.833 341.5 372.167 341.5 340.5 341.5C340.5 350.167 340.5 358.833 340.5 367.5C376.167 367.5 411.833 367.5 447.5 367.5C447.5 377.833 447.5 388.167 447.5 398.5C390.833 398.5 334.167 398.5 277.5 398.5C277.5 351.833 277.5 305.167 277.5 258.5Z" fill="white"/>
<path opacity="0.982" fill-rule="evenodd" clip-rule="evenodd" d="M477.5 259.5C504.169 259.333 530.835 259.5 557.5 260C584.667 289.833 611.833 319.667 639 349.5C639.5 319.502 639.667 289.502 639.5 259.5C659.833 259.5 680.167 259.5 700.5 259.5C700.5 305.833 700.5 352.167 700.5 398.5C672.831 398.667 645.165 398.5 617.5 398C591 367.5 564.5 337 538 306.5C537.5 337.165 537.333 367.832 537.5 398.5C517.5 398.5 497.5 398.5 477.5 398.5C477.5 352.167 477.5 305.833 477.5 259.5Z" fill="white"/>
<path opacity="0.981" fill-rule="evenodd" clip-rule="evenodd" d="M804.5 259.5C828.176 259.167 851.843 259.5 875.5 260.5C905.709 306.419 936.042 352.252 966.5 398C942.826 398.833 919.16 398.666 895.5 397.5C891.294 389.586 886.96 381.753 882.5 374C850.495 373.167 818.495 373.333 786.5 374.5C781.959 382.416 777.293 390.249 772.5 398C751.167 398.667 729.833 398.667 708.5 398C740.72 351.953 772.72 305.787 804.5 259.5ZM836.5 294.5C846.059 309.938 855.392 325.605 864.5 341.5C845.175 342.666 825.842 342.833 806.5 342C816.329 326.016 826.329 310.182 836.5 294.5Z" fill="white"/>
<path opacity="0.987" fill-rule="evenodd" clip-rule="evenodd" d="M5.5 436.5C157.167 436.333 308.834 436.5 460.5 437C370.96 591.915 281.293 746.748 191.5 901.5C172.173 884.172 153.173 866.506 134.5 848.5C192.6 746.63 250.434 644.63 308 542.5C310.67 526.319 304.17 516.153 288.5 512C194.507 512.429 100.507 512.596 6.5 512.5C6.61097 487.159 6.27763 461.826 5.5 436.5Z" fill="white"/>
<path opacity="0.989" fill-rule="evenodd" clip-rule="evenodd" d="M543.5 437.5C693.167 437.5 842.833 437.5 992.5 437.5C992.5 462.5 992.5 487.5 992.5 512.5C897.833 512.071 803.166 511.904 708.5 512C700.498 514.003 694.998 518.836 692 526.5C689.242 535.33 690.242 543.664 695 551.5C752.419 650.003 809.586 748.67 866.5 847.5C847.132 865.537 827.465 883.204 807.5 900.5C718.717 746.6 630.717 592.267 543.5 437.5Z" fill="white"/>
<path opacity="0.986" fill-rule="evenodd" clip-rule="evenodd" d="M498.5 513.5C583.436 653.856 667.77 794.689 751.5 936C728.958 948.035 706.291 959.868 683.5 971.5C627.926 879.364 573.092 786.697 519 693.5C505.667 681.5 493 682.167 481 695.5C426.752 787.665 372.252 879.665 317.5 971.5C295.156 960.995 273.156 949.995 251.5 938.5C333.593 796.642 415.926 654.975 498.5 513.5Z" fill="white"/>
</svg>
